<?xml version="1.0" encoding="iso-8859-1"?>
<!-- Generator: Adobe Illustrator 18.1.1, SVG Export Plug-In . SVG Version: 6.00 Build 0)  -->
<svg version="1.1" id="Capa_1" xmlns="http://www.w3.org/2000/svg" xmlns:xlink="http://www.w3.org/1999/xlink" x="0px" y="0px"
	 viewBox="0 0 265.252 265.252" style="enable-background:new 0 0 265.252 265.252;" xml:space="preserve">
<g>
	<g>
		<path style="fill:#010002;" d="M132.632,0C59.503,0,0,59.492,0,132.626s59.498,132.626,132.632,132.626
			s132.621-59.492,132.621-132.626S205.76,0,132.632,0z M132.632,252.623c-66.166,0-119.997-53.83-119.997-119.997
			S66.465,12.635,132.632,12.635c66.161,0,119.991,53.83,119.991,119.997S198.792,252.623,132.632,252.623z"/>
		<g>
			<path style="fill:#010002;" d="M197.416,138.065H63.251c-3.008,0-5.439-2.437-5.439-5.439s2.431-5.439,5.439-5.439h134.165
				c3.002,0,5.439,2.437,5.439,5.439S200.419,138.065,197.416,138.065z"/>
		</g>
	</g>
</g>
<g>
</g>
<g>
</g>
<g>
</g>
<g>
</g>
<g>
</g>
<g>
</g>
<g>
</g>
<g>
</g>
<g>
</g>
<g>
</g>
<g>
</g>
<g>
</g>
<g>
</g>
<g>
</g>
<g>
</g>
</svg>
