<?xml version="1.0"?>
<svg xmlns="http://www.w3.org/2000/svg" xmlns:xlink="http://www.w3.org/1999/xlink" xmlns:svgjs="http://svgjs.com/svgjs" version="1.1" width="512" height="512" x="0" y="0" viewBox="0 0 481 481.888" style="enable-background:new 0 0 512 512" xml:space="preserve"><g><path xmlns="http://www.w3.org/2000/svg" d="m400.445312 40c-.027343-22.082031-17.921874-39.9726562-40-40h-320c-22.082031.0273438-39.976562 17.917969-40 40v392h16v-392c-.050781-12.21875 9.085938-22.523438 21.21875-23.9375 12.136719-1.414062 23.398438 6.511719 26.160157 18.414062 2.757812 11.902344-3.859375 23.980469-15.378907 28.050782v-22.527344h-16v440h336v-400.800781c18.609376-3.828125 31.976563-20.199219 32-39.199219zm-352 424v-384h304v384zm312-400h-288.210937c10.941406-14.128906 10.941406-33.871094 0-48h288.210937c13.253907 0 24 10.746094 24 24s-10.746093 24-24 24zm0 0" fill="#f3f3f3" data-original="#000000" style=""/><path xmlns="http://www.w3.org/2000/svg" d="m440.445312 48c-22.082031.027344-39.976562 17.917969-40 40v313.886719l40 80 40-80v-313.886719c-.027343-22.082031-17.921874-39.972656-40-40zm-8 324.6875-9.242187-9.246094-6.757813 10.160156v-213.601562h16zm-14.769531 27.886719 8-12 14.769531 14.738281 14.757813-14.753906 8 12-22.757813 45.554687zm46.769531-26.972657-6.761718-10.136718-9.238282 9.222656v-212.6875h16zm0-229.601562h-48v-16h48zm-48-32v-24c0-13.253906 10.742188-24 24-24 13.253907 0 24 10.746094 24 24v24zm0 0" fill="#f3f3f3" data-original="#000000" style=""/><path xmlns="http://www.w3.org/2000/svg" d="m80.445312 144h240v16h-240zm0 0" fill="#f3f3f3" data-original="#000000" style=""/><path xmlns="http://www.w3.org/2000/svg" d="m80.445312 208h240v16h-240zm0 0" fill="#f3f3f3" data-original="#000000" style=""/><path xmlns="http://www.w3.org/2000/svg" d="m80.445312 264h240v16h-240zm0 0" fill="#f3f3f3" data-original="#000000" style=""/><path xmlns="http://www.w3.org/2000/svg" d="m80.445312 328h240v16h-240zm0 0" fill="#f3f3f3" data-original="#000000" style=""/><path xmlns="http://www.w3.org/2000/svg" d="m80.445312 384h144v16h-144zm0 0" fill="#f3f3f3" data-original="#000000" style=""/><path xmlns="http://www.w3.org/2000/svg" d="m272.445312 384h16v16h-16zm0 0" fill="#f3f3f3" data-original="#000000" style=""/><path xmlns="http://www.w3.org/2000/svg" d="m240.445312 384h16v16h-16zm0 0" fill="#f3f3f3" data-original="#000000" style=""/><path xmlns="http://www.w3.org/2000/svg" d="m304.445312 384h16v16h-16zm0 0" fill="#f3f3f3" data-original="#000000" style=""/></g></svg>
