<svg width="40" height="40" viewBox="0 0 40 40" fill="none" xmlns="http://www.w3.org/2000/svg">
<path d="M17.0834 18.75H1.25C0.559998 18.75 0 18.19 0 17.5C0 16.81 0.559998 16.25 1.25 16.25H17.0834C17.7734 16.25 18.3334 16.81 18.3334 17.5C18.3334 18.19 17.7734 18.75 17.0834 18.75Z" fill="white"/>
<path d="M10.8334 25C10.5133 25 10.1935 24.8782 9.94995 24.6335C9.46167 24.1449 9.46167 23.3533 9.94995 22.865L15.3168 17.4985L9.94995 12.1335C9.46167 11.6449 9.46167 10.8533 9.94995 10.365C10.4382 9.87671 11.2299 9.87671 11.7184 10.365L17.9684 16.615C18.4567 17.1033 18.4567 17.8949 17.9684 18.3835L11.7184 24.6335C11.4734 24.8782 11.1533 25 10.8334 25Z" fill="white"/>
<path d="M26.6666 40C24.8282 40 23.3334 38.5049 23.3334 36.6666V6.66656C23.3334 5.24169 24.2401 3.97003 25.5899 3.50158L35.6033 0.163264C37.8433 -0.523381 40 1.1383 40 3.33343V33.3334C40 34.7568 39.0933 36.0266 37.7451 36.4966L27.7283 39.8367C27.3633 39.9499 27.0251 40 26.6666 40ZM36.6666 2.49999C36.5582 2.49999 36.4667 2.51342 36.3684 2.54333L26.3968 5.86822C26.0699 5.98175 25.8334 6.31164 25.8334 6.66656V36.6666C25.8334 37.2351 26.4499 37.6184 26.965 37.4567L36.9366 34.1318C37.2617 34.0182 37.5 33.6883 37.5 33.3334V3.33343C37.5 2.87506 37.1268 2.49999 36.6666 2.49999Z" fill="white"/>
<path d="M14.5834 8.33344C13.8934 8.33344 13.3334 7.77344 13.3334 7.08344V4.58344C13.3334 2.05505 15.3882 0 17.9166 0H36.6666C37.3566 0 37.9166 0.559998 37.9166 1.25C37.9166 1.94 37.3566 2.5 36.6666 2.5H17.9166C16.7682 2.5 15.8334 3.43506 15.8334 4.58344V7.08344C15.8334 7.77344 15.2734 8.33344 14.5834 8.33344Z" fill="white"/>
<path d="M24.5834 35.0001H17.9166C15.3882 35.0001 13.3334 32.945 13.3334 30.4166V27.9166C13.3334 27.2266 13.8934 26.6666 14.5834 26.6666C15.2734 26.6666 15.8334 27.2266 15.8334 27.9166V30.4166C15.8334 31.565 16.7682 32.5001 17.9166 32.5001H24.5834C25.2734 32.5001 25.8334 33.0601 25.8334 33.7501C25.8334 34.4401 25.2734 35.0001 24.5834 35.0001Z" fill="white"/>
</svg>
