<?xml version="1.0"?>
<svg xmlns="http://www.w3.org/2000/svg" xmlns:xlink="http://www.w3.org/1999/xlink" xmlns:svgjs="http://svgjs.com/svgjs" version="1.1" width="512" height="512" x="0" y="0" viewBox="0 0 512 512" style="enable-background:new 0 0 512 512" xml:space="preserve" class=""><g><g xmlns="http://www.w3.org/2000/svg"><path d="m471 262.813c22.945-2.032 41-21.348 41-44.813v-140c0-24.813-20.187-45-45-45h-149c-24.813 0-45 20.187-45 45v59h-187c-24.813 0-45 20.187-45 45v180c0 5.258.915 10.305 2.58 15h-16.58c-14.888 0-27 12.112-27 27 0 41.355 33.645 75 75 75h362c41.355 0 75-33.645 75-75 0-14.888-12.112-27-27-27h-16.58c1.665-4.695 2.58-9.742 2.58-15zm-168-184.813c0-8.271 6.729-15 15-15h149c8.271 0 15 6.729 15 15v140c0 8.271-6.729 15-15 15h-139c-2.812 0-5.566.79-7.95 2.28l-30.244 18.903 12.562-41.873c.419-1.398.632-2.85.632-4.31zm134 371h-362c-23.805 0-43.351-18.581-44.901-42h451.802c-1.55 23.419-21.096 42-44.901 42zm-294-185c0-9.374 7.626-17 17-17s17 7.626 17 17-7.626 17-17 17-17-7.626-17-17zm-8 64c0-9.056 11.682-17 25-17 7.142 0 14.023 2.228 18.879 6.113 2.287 1.829 6.121 5.675 6.121 10.887v49h-50zm80 49v-49c0-12.97-6.334-25.477-17.38-34.313-.248-.199-.507-.385-.759-.579 6.34-8.012 10.139-18.122 10.139-29.108 0-25.916-21.084-47-47-47s-47 21.084-47 47c0 10.999 3.808 21.118 10.16 29.134-11.144 8.607-18.16 21.049-18.16 34.866v49h-19c-8.271 0-15-6.729-15-15v-180c0-8.271 6.729-15 15-15h187v38.799l-11.929 39.763c-3.623 12.076.512 24.822 10.535 32.47 5.399 4.12 11.772 6.202 18.175 6.202 5.484 0 10.991-1.528 15.923-4.611l26.598-16.623h108.698v99c0 8.271-6.729 15-15 15z" fill="#ffffff" data-original="#000000" style="" class=""/><path d="m408 169h-32c-8.284 0-15 6.716-15 15s6.716 15 15 15h32c8.284 0 15-6.716 15-15s-6.716-15-15-15z" fill="#ffffff" data-original="#000000" style="" class=""/><path d="m352 127h80c8.284 0 15-6.716 15-15s-6.716-15-15-15h-80c-8.284 0-15 6.716-15 15s6.716 15 15 15z" fill="#ffffff" data-original="#000000" style="" class=""/></g></g></svg>
