<svg width="109" height="94" viewBox="0 0 109 94" fill="none" xmlns="http://www.w3.org/2000/svg">
<path d="M1.93847 93.624H107.062C108.133 93.624 109 92.8527 109 91.9015V8.35783C109 7.40655 108.133 6.63558 107.062 6.63558H85.7278V2.01473C85.7278 1.06346 84.8597 0.29248 83.7894 0.29248C82.7191 0.29248 81.8516 1.06346 81.8516 2.01473V6.63558H66.2016V2.01473C66.2016 1.06346 65.3334 0.29248 64.2631 0.29248C63.1928 0.29248 62.3254 1.06346 62.3254 2.01473V6.63558H46.6753V2.01473C46.6753 1.06346 45.8079 0.29248 44.7369 0.29248C43.6666 0.29248 42.7991 1.06346 42.7991 2.01473V6.63558H27.1484V2.01473C27.1484 1.06346 26.2809 0.29248 25.2106 0.29248C24.1403 0.29248 23.2722 1.06346 23.2722 2.01473V6.63558H1.93847C0.868154 6.63558 0 7.40655 0 8.35783V91.9018C0 92.8527 0.868154 93.624 1.93847 93.624ZM3.87623 10.0807H23.2722V17.2051C23.2722 18.1564 24.1403 18.9277 25.2106 18.9277C26.2809 18.9277 27.1484 18.1564 27.1484 17.2051V10.0807H42.7995V17.2051C42.7995 18.1564 43.6669 18.9277 44.7372 18.9277C45.8083 18.9277 46.6757 18.1564 46.6757 17.2051V10.0807H62.3257V17.2051C62.3257 18.1564 63.1932 18.9277 64.2635 18.9277C65.3338 18.9277 66.2019 18.1564 66.2019 17.2051V10.0807H81.852V17.2051C81.852 18.1564 82.7194 18.9277 83.7897 18.9277C84.86 18.9277 85.7282 18.1564 85.7282 17.2051V10.0807H105.124V90.1789H3.87623V10.0807Z" fill="white"/>
<path d="M95.6923 31.2109H13.3089C12.2385 31.2109 11.3711 31.9819 11.3711 32.9332V84.206C11.3711 85.1573 12.2385 85.9286 13.3089 85.9286H95.6923C96.7626 85.9286 97.6301 85.1573 97.6301 84.206V32.9329C97.6301 31.9816 96.7626 31.2109 95.6923 31.2109ZM93.7538 82.4831H15.2473V34.6558H93.7538V82.4831Z" fill="white"/>
<path d="M19.8816 69.2493C18.8113 69.2493 17.9431 70.0203 17.9431 70.9716C17.9431 71.9228 18.8113 72.6944 19.8816 72.6944H31.05V78.2334C31.05 79.1847 31.9181 79.9556 32.9884 79.9556C34.0587 79.9556 34.9262 79.1847 34.9262 78.2334V72.6944H45.3909V78.2334C45.3909 79.1847 46.259 79.9556 47.3293 79.9556C48.3996 79.9556 49.2671 79.1847 49.2671 78.2334V72.6944H59.7325V78.2334C59.7325 79.1847 60.6007 79.9556 61.671 79.9556C62.7413 79.9556 63.6087 79.1847 63.6087 78.2334V72.6944H74.0755V78.2334C74.0755 79.1847 74.943 79.9556 76.0133 79.9556C77.0836 79.9556 77.9517 79.1847 77.9517 78.2334V72.6944H89.1187C90.189 72.6944 91.0572 71.9228 91.0572 70.9716C91.0572 70.0203 90.189 69.2493 89.1187 69.2493H77.9517V60.2922H89.1187C90.189 60.2922 91.0572 59.5212 91.0572 58.5699C91.0572 57.6186 90.189 56.847 89.1187 56.847H77.9517V47.8902H89.1187C90.189 47.8902 91.0572 47.1189 91.0572 46.1676C91.0572 45.2164 90.189 44.4451 89.1187 44.4451H77.9517V38.9074C77.9517 37.9561 77.0836 37.1848 76.0133 37.1848C74.943 37.1848 74.0755 37.9561 74.0755 38.9074V44.4451H63.6087V38.9074C63.6087 37.9561 62.7413 37.1848 61.671 37.1848C60.6007 37.1848 59.7325 37.9561 59.7325 38.9074V44.4451H49.2671V38.9074C49.2671 37.9561 48.3996 37.1848 47.3293 37.1848C46.259 37.1848 45.3909 37.9561 45.3909 38.9074V44.4451H34.9262V38.9074C34.9262 37.9561 34.0587 37.1848 32.9884 37.1848C31.9181 37.1848 31.05 37.9561 31.05 38.9074V44.4451H19.8816C18.8113 44.4451 17.9431 45.2164 17.9431 46.1676C17.9431 47.1189 18.8113 47.8902 19.8816 47.8902H31.05V56.847H19.8816C18.8113 56.847 17.9431 57.6186 17.9431 58.5699C17.9431 59.5212 18.8113 60.2922 19.8816 60.2922H31.05V69.2493H19.8816ZM49.2671 69.2493V60.2922H59.7325V69.2493H49.2671ZM74.0752 69.2493H63.6084V60.2922H74.0752V69.2493ZM74.0752 47.8902V56.847H63.6084V47.8902H74.0752ZM59.7325 47.8902V56.847H49.2671V47.8902H59.7325ZM34.9262 47.8902H45.3909V56.847H34.9262V47.8902ZM34.9262 60.2922H45.3909V69.2493H34.9262V60.2922Z" fill="white"/>
<path d="M25.2107 26.7921H83.7894C84.8597 26.7921 85.7279 26.0208 85.7279 25.0695C85.7279 24.1182 84.8597 23.3469 83.7894 23.3469H25.2107C24.1404 23.3469 23.2722 24.1182 23.2722 25.0695C23.2722 26.0208 24.1404 26.7921 25.2107 26.7921Z" fill="white"/>
</svg>
