<?xml version="1.0"?>
<svg xmlns="http://www.w3.org/2000/svg" xmlns:xlink="http://www.w3.org/1999/xlink" xmlns:svgjs="http://svgjs.com/svgjs" version="1.1" width="512" height="512" x="0" y="0" viewBox="0 0 512 512" style="enable-background:new 0 0 512 512" xml:space="preserve" class=""><g><g xmlns="http://www.w3.org/2000/svg"><path d="m466.999 482v-112.5h-45v112.5zm-29.999-15v-33.75h15v33.75zm14.999-82.5v33.75h-15v-33.75z" fill="#683192" data-original="#000000" style="" class=""/><path d="m45.001 369.5v112.5h45v-112.5zm29.999 15v33.75h-15v-33.75zm-14.999 82.5v-33.75h15v33.75z" fill="#683192" data-original="#000000" style="" class=""/><path d="m497 482v-157.499h15v-45h-120v-89.999h22.5v-41.949l-151-82.499v-20.054h60v-45h-75v65.054l-151 82.499v41.949h22.5v89.999h-120v45h15v157.499h15v-157.499h90v142.499h-15v30h-105v15h512v-15h-105v-30h-15v-142.499h90v157.499zm-233.5-467h45v15h-45zm114.13 129.502h-243.26l121.63-66.452zm-362.63 164.999v-15h105v15zm105 187.499v-15h128.5v-15h-83.5v-15h182v15h-83.5v15h128.5v15zm143.5-60.001v-82.5h46v82.5zm61-97.499h-137v-15h137zm-76 15v82.5h-46v-82.5zm113.5 112.5v-30h-37.5v-82.5h15v-45h-167v45h15v82.5h-37.5v30h-15v-277.498h113.5v-15h-136v-15h287v15h-136v15h113.5v277.498zm30-172.499h105v15h-105z" fill="#683192" data-original="#000000" style="" class=""/><path d="m187.5 272h61v15h-61z" fill="#683192" data-original="#000000" style="" class=""/><path d="m187.5 242h61v15h-61z" fill="#683192" data-original="#000000" style="" class=""/><path d="m263.5 242h61v15h-61z" fill="#683192" data-original="#000000" style="" class=""/><path d="m263.5 272h61v15h-61z" fill="#683192" data-original="#000000" style="" class=""/><path d="m233.5 114.503h15v15h-15z" fill="#683192" data-original="#000000" style="" class=""/><path d="m347 204.502h15v15h-15z" fill="#683192" data-original="#000000" style="" class=""/><path d="m287 204.502h45v15h-45z" fill="#683192" data-original="#000000" style="" class=""/><path d="m263.5 114.503h15v15h-15z" fill="#683192" data-original="#000000" style="" class=""/></g></g></svg>
