<svg width="108" height="102" viewBox="0 0 108 102" fill="none" xmlns="http://www.w3.org/2000/svg">
<path d="M105.676 0H1.79111C0.800627 0 0 0.756102 0 1.68773V62.4459C0 63.3775 0.800627 64.1336 1.79111 64.1336H19.7022V67.1918C16.4961 68.9454 14.3289 72.2094 14.3289 75.9477C14.3289 79.2304 16.0036 82.1451 18.581 83.9965C12.9193 86.356 8.95556 91.6909 8.95556 97.8882V99.5759C8.95556 100.508 9.75618 101.264 10.7467 101.264H39.4044H68.0622H96.72C97.7105 101.264 98.5111 100.508 98.5111 99.5759V97.8882C98.5111 91.6909 94.5474 86.356 88.8857 83.9965C91.4631 82.1451 93.1378 79.2304 93.1378 75.9477C93.1378 72.2094 90.9705 68.9454 87.7645 67.1918V64.1336H105.676C106.666 64.1336 107.467 63.3775 107.467 62.4459V1.68773C107.467 0.756102 106.666 0 105.676 0ZM17.9111 75.9477C17.9111 72.2246 21.1244 69.1968 25.0756 69.1968C29.0267 69.1968 32.24 72.2246 32.24 75.9477C32.24 79.6709 29.0267 82.6987 25.0756 82.6987C21.1244 82.6987 17.9111 79.6709 17.9111 75.9477ZM12.5378 97.8882C12.5378 91.3736 18.1637 86.0741 25.0756 86.0741C31.9875 86.0741 37.6133 91.3736 37.6133 97.8882H12.5378ZM31.5701 83.9965C34.1475 82.1451 35.8222 79.2304 35.8222 75.9477C35.8222 73.352 34.7726 70.9909 33.0639 69.1968H45.7468C44.0363 70.9909 42.9867 73.352 42.9867 75.9477C42.9867 79.2304 44.6614 82.1451 47.2388 83.9965C43.8572 85.4058 41.0899 87.8766 39.4044 90.9601C37.719 87.8766 34.9517 85.4058 31.5701 83.9965ZM46.5689 75.9477C46.5689 72.2246 49.7821 69.1968 53.7333 69.1968C57.6845 69.1968 60.8978 72.2246 60.8978 75.9477C60.8978 79.6709 57.6845 82.6987 53.7333 82.6987C49.7821 82.6987 46.5689 79.6709 46.5689 75.9477ZM41.1956 97.8882C41.1956 91.3736 46.8214 86.0741 53.7333 86.0741C60.6452 86.0741 66.2711 91.3736 66.2711 97.8882H41.1956ZM60.2279 83.9965C62.8053 82.1451 64.48 79.2304 64.48 75.9477C64.48 73.352 63.4304 70.9909 61.7217 69.1968H74.4045C72.694 70.9909 71.6444 73.352 71.6444 75.9477C71.6444 79.2304 73.3191 82.1451 75.8965 83.9965C72.5149 85.4058 69.7477 87.8766 68.0622 90.9601C66.3768 87.8766 63.6095 85.4058 60.2279 83.9965ZM94.9289 97.8882H69.8533C69.8533 91.3736 75.4792 86.0741 82.3911 86.0741C89.303 86.0741 94.9289 91.3736 94.9289 97.8882ZM89.5556 75.9477C89.5556 79.6709 86.3423 82.6987 82.3911 82.6987C78.4399 82.6987 75.2267 79.6709 75.2267 75.9477C75.2267 72.2246 78.4399 69.1968 82.3911 69.1968C86.3423 69.1968 89.5556 72.2246 89.5556 75.9477ZM85.9733 52.3196H80.6V55.695H84.1822V65.8214H23.2844V54.0073C23.2844 53.0757 22.4838 52.3196 21.4933 52.3196H16.12V48.9441H39.4044H68.0622H91.3467V52.3196H85.9733ZM64.2919 27.0036C66.3177 27.0036 68.304 27.6602 69.8856 28.8534L75.8965 33.3849C76.2816 33.6752 76.7778 33.8052 77.2632 33.7394C77.7486 33.6752 78.1892 33.4254 78.474 33.0474L86.3638 22.6392L90.6499 25.667L81.8609 37.0557C80.9779 38.2017 79.6686 38.9274 78.1784 39.103C76.6828 39.2768 75.2303 38.8751 74.0768 37.9688L69.2085 34.1461C68.6748 33.7275 67.9297 33.6381 67.3028 33.9132C66.6741 34.1917 66.2711 34.7874 66.2711 35.4423V45.5686H55.5244V30.3791H51.9422V45.5686H41.1956V35.4423C41.1956 34.7874 40.7926 34.1917 40.1639 33.9132C39.5406 33.6381 38.7937 33.7259 38.2581 34.1461L33.3899 37.9688C32.2346 38.8768 30.7856 39.2768 29.2882 39.103C27.798 38.9274 26.4905 38.2017 25.6057 37.0557L16.8167 25.667L21.1029 22.6392L28.9927 33.0474C29.2775 33.4254 29.7163 33.6752 30.2035 33.7394C30.6907 33.8069 31.185 33.6752 31.5701 33.3849L37.5811 28.8534C39.1609 27.6602 41.149 27.0036 43.1729 27.0036H64.2919ZM46.5689 16.8773C46.5689 13.1541 49.7821 10.1264 53.7333 10.1264C57.6845 10.1264 60.8978 13.1541 60.8978 16.8773C60.8978 20.6004 57.6845 23.6282 53.7333 23.6282C49.7821 23.6282 46.5689 20.6004 46.5689 16.8773ZM103.884 60.7582H87.7645V55.695H93.1378C94.1283 55.695 94.9289 54.9389 94.9289 54.0073V47.2564C94.9289 46.3247 94.1283 45.5686 93.1378 45.5686H69.8533V39.0456L71.7824 40.5612C73.6809 42.0514 76.1813 42.74 78.619 42.4531C81.0675 42.1679 83.3046 40.924 84.7572 39.0422L94.585 26.31C95.1599 25.564 94.9952 24.5193 94.2107 23.9674L87.0462 18.9042C86.6611 18.6308 86.1829 18.5177 85.6975 18.5869C85.2211 18.6561 84.7948 18.9042 84.5154 19.2738L76.6596 29.6365L72.1263 26.2188C69.9107 24.548 67.1291 23.6282 64.2937 23.6282H61.7217C63.4304 21.8341 64.48 19.473 64.48 16.8773C64.48 11.2926 59.6601 6.75091 53.7333 6.75091C47.8065 6.75091 42.9867 11.2926 42.9867 16.8773C42.9867 19.473 44.0363 21.8341 45.745 23.6282H43.1729C40.3358 23.6282 37.5542 24.548 35.3404 26.2172L30.8071 29.6365L22.9495 19.2722C22.6701 18.9025 22.242 18.6545 21.7674 18.5853C21.282 18.5177 20.8038 18.6308 20.4187 18.9025L13.2542 23.9657C12.4697 24.5193 12.3049 25.5623 12.8799 26.3083L22.7077 39.0405C24.1603 40.9206 26.3974 42.1645 28.8458 42.4514C31.28 42.7366 33.7857 42.0497 35.6825 40.5595L37.6133 39.0456V45.5686H14.3289C13.3384 45.5686 12.5378 46.3247 12.5378 47.2564V54.0073C12.5378 54.9389 13.3384 55.695 14.3289 55.695H19.7022V60.7582H3.58222V3.37546H103.884V60.7582Z" fill="white"/>
</svg>
