<svg width="99" height="93" viewBox="0 0 99 93" fill="none" xmlns="http://www.w3.org/2000/svg">
<path d="M49.5 0C22.2056 0 0 20.8598 0 46.5C0 72.1402 22.2056 93 49.5 93C76.7944 93 99 72.1402 99 46.5C99 20.8598 76.7944 0 49.5 0ZM49.5 87.5508C25.4041 87.5508 5.80078 69.1355 5.80078 46.5C5.80078 23.8645 25.4041 5.44922 49.5 5.44922C73.5959 5.44922 93.1992 23.8645 93.1992 46.5C93.1992 69.1355 73.5959 87.5508 49.5 87.5508Z" fill="white"/>
<path d="M49.5 49.043C60.6949 49.043 69.8027 40.4872 69.8027 29.9707C69.8027 19.4543 60.6949 10.8984 49.5 10.8984C38.3051 10.8984 29.1973 19.4543 29.1973 29.9707C29.1973 40.4872 38.3051 49.043 49.5 49.043ZM49.5 16.3477C57.4964 16.3477 64.002 22.459 64.002 29.9707C64.002 37.4825 57.4964 43.5938 49.5 43.5938C41.5036 43.5938 34.998 37.4825 34.998 29.9707C34.998 22.459 41.5036 16.3477 49.5 16.3477Z" fill="white"/>
<path d="M82.1099 60.9301C78.2557 56.8386 72.7126 54.4922 66.9024 54.4922H32.0977C26.2874 54.4922 20.7444 56.8386 16.8902 60.9301L15.5154 62.3896L16.5413 64.0834C23.2735 75.1974 35.9026 82.1016 49.5 82.1016C63.0975 82.1016 75.7265 75.1974 82.4589 64.0832L83.4849 62.3894L82.1099 60.9301ZM49.5 76.6523C38.723 76.6523 28.6634 71.5306 22.7424 63.1574C25.3435 61.0954 28.6551 59.9414 32.0977 59.9414H66.9024C70.3449 59.9414 73.6566 61.0954 76.2577 63.1574C70.3366 71.5306 60.2771 76.6523 49.5 76.6523Z" fill="white"/>
</svg>
