<svg width="93" height="86" viewBox="0 0 93 86" fill="none" xmlns="http://www.w3.org/2000/svg">
<g clip-path="url(#clip0)">
<path d="M91.45 0.280518H1.55C0.69285 0.280518 0 0.915184 0 1.69718V52.6972C0 53.4792 0.69285 54.1138 1.55 54.1138H17.05V56.6809C14.2755 58.1528 12.4 60.8926 12.4 64.0305C12.4 66.7859 13.8492 69.2325 16.0797 70.7866C11.1801 72.7671 7.75 77.2452 7.75 82.4472V83.8638C7.75 84.6459 8.44285 85.2805 9.3 85.2805H34.1H58.9H83.7C84.5571 85.2805 85.25 84.6459 85.25 83.8638V82.4472C85.25 77.2452 81.8198 72.7671 76.9203 70.7866C79.1507 69.2325 80.6 66.7859 80.6 64.0305C80.6 60.8926 78.7245 58.1528 75.95 56.6809V54.1138H91.45C92.3071 54.1138 93 53.4792 93 52.6972V1.69718C93 0.915184 92.3071 0.280518 91.45 0.280518ZM15.5 64.0305C15.5 60.9053 18.2807 58.3638 21.7 58.3638C25.1193 58.3638 27.9 60.9053 27.9 64.0305C27.9 67.1557 25.1193 69.6972 21.7 69.6972C18.2807 69.6972 15.5 67.1557 15.5 64.0305ZM10.85 82.4472C10.85 76.9789 15.7185 72.5305 21.7 72.5305C27.6814 72.5305 32.55 76.9789 32.55 82.4472H10.85ZM27.3203 70.7866C29.5507 69.2325 31 66.7859 31 64.0305C31 61.8517 30.0917 59.8698 28.613 58.3638H39.5886C38.1083 59.8698 37.2 61.8517 37.2 64.0305C37.2 66.7859 38.6493 69.2325 40.8797 70.7866C37.9533 71.9695 35.5585 74.0435 34.1 76.6318C32.6414 74.0435 30.2467 71.9695 27.3203 70.7866ZM40.3 64.0305C40.3 60.9053 43.0807 58.3638 46.5 58.3638C49.9193 58.3638 52.7 60.9053 52.7 64.0305C52.7 67.1557 49.9193 69.6972 46.5 69.6972C43.0807 69.6972 40.3 67.1557 40.3 64.0305ZM35.65 82.4472C35.65 76.9789 40.5185 72.5305 46.5 72.5305C52.4814 72.5305 57.35 76.9789 57.35 82.4472H35.65ZM52.1203 70.7866C54.3507 69.2325 55.8 66.7859 55.8 64.0305C55.8 61.8517 54.8917 59.8698 53.413 58.3638H64.3885C62.9083 59.8698 62 61.8517 62 64.0305C62 66.7859 63.4492 69.2325 65.6797 70.7866C62.7533 71.9695 60.3585 74.0435 58.9 76.6318C57.4414 74.0435 55.0467 71.9695 52.1203 70.7866ZM82.15 82.4472H60.45C60.45 76.9789 65.3186 72.5305 71.3 72.5305C77.2814 72.5305 82.15 76.9789 82.15 82.4472ZM77.5 64.0305C77.5 67.1557 74.7193 69.6972 71.3 69.6972C67.8807 69.6972 65.1 67.1557 65.1 64.0305C65.1 60.9053 67.8807 58.3638 71.3 58.3638C74.7193 58.3638 77.5 60.9053 77.5 64.0305ZM74.4 44.1972H69.75V47.0305H72.85V55.5305H20.15V45.6138C20.15 44.8318 19.4571 44.1972 18.6 44.1972H13.95V41.3638H34.1H58.9H79.05V44.1972H74.4ZM55.6372 22.9472C57.3903 22.9472 59.1092 23.4983 60.4779 24.4999L65.6797 28.3036C66.0129 28.5473 66.4423 28.6563 66.8624 28.6011C67.2824 28.5473 67.6637 28.3376 67.9101 28.0203L74.7379 19.2837L78.447 21.8252L70.8412 31.3848C70.077 32.3468 68.944 32.9559 67.6544 33.1033C66.3601 33.2492 65.1031 32.912 64.1049 32.1513L59.892 28.9425C59.4301 28.5912 58.7853 28.5161 58.2428 28.747C57.6987 28.9808 57.35 29.4809 57.35 30.0305V38.5305H48.05V25.7805H44.95V38.5305H35.65V30.0305C35.65 29.4809 35.3013 28.9808 34.7572 28.747C34.2178 28.5161 33.5714 28.5898 33.108 28.9425L28.8951 32.1513C27.8953 32.9134 26.6414 33.2492 25.3456 33.1033C24.056 32.9559 22.9245 32.3468 22.1588 31.3848L14.5529 21.8252L18.2621 19.2837L25.0898 28.0203C25.3363 28.3376 25.7161 28.5473 26.1377 28.6011C26.5592 28.6578 26.987 28.5473 27.3203 28.3036L32.5221 24.4999C33.8892 23.4983 35.6097 22.9472 37.3612 22.9472H55.6372ZM40.3 14.4472C40.3 11.322 43.0807 8.78052 46.5 8.78052C49.9193 8.78052 52.7 11.322 52.7 14.4472C52.7 17.5724 49.9193 20.1138 46.5 20.1138C43.0807 20.1138 40.3 17.5724 40.3 14.4472ZM89.9 51.2805H75.95V47.0305H80.6C81.4571 47.0305 82.15 46.3959 82.15 45.6138V39.9472C82.15 39.1652 81.4571 38.5305 80.6 38.5305H60.45V33.0551L62.1193 34.3273C63.7623 35.5782 65.9261 36.1562 68.0357 35.9153C70.1545 35.6759 72.0905 34.6318 73.3475 33.0523L81.8524 22.3649C82.3499 21.7388 82.2073 20.8619 81.5284 20.3986L75.3284 16.1486C74.9952 15.9191 74.5814 15.8242 74.1613 15.8823C73.749 15.9403 73.3801 16.1486 73.1383 16.4589L66.34 25.1572L62.417 22.2884C60.4996 20.8859 58.0924 20.1138 55.6388 20.1138H53.413C54.8917 18.6079 55.8 16.626 55.8 14.4472C55.8 9.75943 51.6289 5.94718 46.5 5.94718C41.371 5.94718 37.2 9.75943 37.2 14.4472C37.2 16.626 38.1083 18.6079 39.587 20.1138H37.3612C34.906 20.1138 32.4989 20.8859 30.583 22.287L26.66 25.1572L19.8601 16.4574C19.6183 16.1472 19.2479 15.9389 18.8371 15.8809C18.4171 15.8242 18.0032 15.9191 17.67 16.1472L11.47 20.3972C10.7911 20.8619 10.6485 21.7374 11.146 22.3635L19.6509 33.0508C20.9079 34.629 22.8439 35.6731 24.9627 35.9139C27.0692 36.1534 29.2376 35.5768 30.8791 34.3258L32.55 33.0551V38.5305H12.4C11.5428 38.5305 10.85 39.1652 10.85 39.9472V45.6138C10.85 46.3959 11.5428 47.0305 12.4 47.0305H17.05V51.2805H3.1V3.11385H89.9V51.2805Z" fill="white"/>
<path d="M86.7999 5.94727H83.7V8.7806H86.7999V5.94727Z" fill="white"/>
<path d="M80.6 5.94727H77.5V8.7806H80.6V5.94727Z" fill="white"/>
<path d="M74.4 5.94727H71.3V8.7806H74.4V5.94727Z" fill="white"/>
<path d="M66.65 44.1973H63.55V47.0306H66.65V44.1973Z" fill="white"/>
</g>
<defs>
<clipPath id="clip0">
<rect width="93" height="85" fill="white" transform="translate(0 0.280518)"/>
</clipPath>
</defs>
</svg>
