<svg height="512pt" viewBox="0 -68 512 512" width="512pt" xmlns="http://www.w3.org/2000/svg" xmlns:xlink="http://www.w3.org/1999/xlink"><linearGradient id="a">
<stop offset="0.3" stop-color="#662d91"/>
<stop offset=".437" stop-color="#3873b3"/>
<stop offset="1" stop-color= "#00FF00"/>

</linearGradient><linearGradient id="b" gradientTransform="matrix(1.002065 0 0 -1.002065 0 435.740363)" gradientUnits="userSpaceOnUse" x1="83.7353" x2="398.1195" xlink:href="#a" y1="419.2332" y2="104.849"/><linearGradient id="c" gradientTransform="matrix(1.002065 0 0 -1.002065 0 435.740363)" gradientUnits="userSpaceOnUse" x1="79.4774" x2="393.8617" xlink:href="#a" y1="414.9753" y2="100.5911"/><linearGradient id="d" gradientTransform="matrix(1.002065 0 0 -1.002065 0 435.740363)" gradientUnits="userSpaceOnUse" x1="28.383" x2="342.7672" xlink:href="#a" y1="363.8809" y2="49.4967"/><linearGradient id="e" gradientTransform="matrix(1.002065 0 0 -1.002065 0 435.740363)" gradientUnits="userSpaceOnUse" x1="-22.7115" x2="291.6727" xlink:href="#a" y1="312.7864" y2="-1.5978"/><linearGradient id="f" gradientTransform="matrix(1.002065 0 0 -1.002065 0 435.740363)" gradientUnits="userSpaceOnUse" x1="-48.2587" x2="266.1255" xlink:href="#a" y1="287.2392" y2="-27.145"/><linearGradient id="g" gradientTransform="matrix(1.002065 0 0 -1.002065 0 435.740363)" gradientUnits="userSpaceOnUse" x1="105.0247" x2="419.4089" xlink:href="#a" y1="440.5226" y2="126.1384"/><linearGradient id="h" gradientTransform="matrix(1.002065 0 0 -1.002065 0 435.740363)" gradientUnits="userSpaceOnUse" x1="181.6664" x2="496.0506" xlink:href="#a" y1="517.1642" y2="202.78"/><linearGradient id="i" gradientTransform="matrix(1.002065 0 0 -1.002065 0 435.740363)" gradientUnits="userSpaceOnUse" x1="156.1191" x2="470.5033" xlink:href="#a" y1="491.617" y2="177.2328"/><linearGradient id="j" gradientTransform="matrix(1.002065 0 0 -1.002065 0 435.740363)" gradientUnits="userSpaceOnUse" x1="53.9302" x2="368.3144" xlink:href="#a" y1="389.4281" y2="75.0439"/><path d="m503.464844 0h-494.929688c-4.714844 0-8.535156 3.820312-8.535156 8.535156v358.398438c0 4.710937 3.820312 8.53125 8.535156 8.53125h494.929688c4.714844 0 8.535156-3.820313 8.535156-8.53125v-358.398438c0-4.714844-3.820312-8.535156-8.535156-8.535156zm-8.53125 51.199219h-85.332032v-34.132813h85.332032zm-290.132813-34.132813h85.332031v34.132813h-85.332031zm-17.066406 34.132813h-85.335937v-34.132813h85.335937zm119.464844-34.132813h85.332031v34.132813h-85.332031zm-221.867188 0v34.132813h-68.265625v-34.132813zm-68.265625 238.933594v-34.132812h68.265625v34.132812zm68.265625 17.066406v34.132813h-68.265625v-34.132813zm-68.265625-68.265625v-34.132812h68.265625v34.132812zm0-51.203125v-34.132812h68.265625v34.132812zm0-51.199218v-34.132813h68.265625v34.132813zm0 256v-34.132813h68.265625v34.132813zm85.332032 0v-290.132813h85.335937v290.132813zm102.402343 0v-290.132813h85.332031v290.132813zm102.398438 0v-290.132813h85.332031v290.132813zm102.402343 0v-290.132813h85.332032v290.132813zm0 0" fill="url(#b)"/><path d="m128 93.867188h34.132812c4.714844 0 8.535157-3.820313 8.535157-8.535157 0-4.710937-3.820313-8.53125-8.535157-8.53125h-34.132812c-4.714844 0-8.535156 3.820313-8.535156 8.53125 0 4.714844 3.820312 8.535157 8.535156 8.535157zm0 0" fill="url(#c)"/><path d="m162.132812 179.199219h-34.132812c-4.714844 0-8.535156 3.820312-8.535156 8.535156 0 4.710937 3.820312 8.53125 8.535156 8.53125h34.132812c4.714844 0 8.535157-3.820313 8.535157-8.53125 0-4.714844-3.820313-8.535156-8.535157-8.535156zm0 0" fill="url(#d)"/><path d="m162.132812 281.597656h-34.132812c-4.714844 0-8.535156 3.824219-8.535156 8.535156 0 4.710938 3.820312 8.535157 8.535156 8.535157h34.132812c4.714844 0 8.535157-3.824219 8.535157-8.535157 0-4.710937-3.820313-8.535156-8.535157-8.535156zm0 0" fill="url(#e)"/><path d="m366.933594 281.597656h-34.132813c-4.714843 0-8.535156 3.824219-8.535156 8.535156 0 4.710938 3.820313 8.535157 8.535156 8.535157h34.132813c4.710937 0 8.53125-3.824219 8.53125-8.535157 0-4.710937-3.820313-8.535156-8.53125-8.535156zm0 0" fill="url(#c)"/><path d="m162.132812 332.800781h-34.132812c-4.714844 0-8.535156 3.820313-8.535156 8.53125 0 4.714844 3.820312 8.535157 8.535156 8.535157h34.132812c4.714844 0 8.535157-3.820313 8.535157-8.535157 0-4.710937-3.820313-8.53125-8.535157-8.53125zm0 0" fill="url(#f)"/><path d="m469.332031 332.800781h-34.132812c-4.710938 0-8.53125 3.820313-8.53125 8.53125 0 4.714844 3.820312 8.535157 8.53125 8.535157h34.132812c4.714844 0 8.535157-3.820313 8.535157-8.535157 0-4.710937-3.820313-8.53125-8.535157-8.53125zm0 0" fill="url(#g)"/><path d="m469.332031 179.199219h-34.132812c-4.710938 0-8.53125 3.820312-8.53125 8.535156 0 4.710937 3.820312 8.53125 8.53125 8.53125h34.132812c4.714844 0 8.535157-3.820313 8.535157-8.53125 0-4.714844-3.820313-8.535156-8.535157-8.535156zm0 0" fill="url(#h)"/><path d="m469.332031 230.398438h-34.132812c-4.710938 0-8.53125 3.820312-8.53125 8.535156 0 4.710937 3.820312 8.535156 8.53125 8.535156h34.132812c4.714844 0 8.535157-3.824219 8.535157-8.535156 0-4.714844-3.820313-8.535156-8.535157-8.535156zm0 0" fill="url(#i)"/><path d="m230.398438 145.066406h34.132812c4.714844 0 8.535156-3.820312 8.535156-8.53125 0-4.714844-3.820312-8.535156-8.535156-8.535156h-34.132812c-4.710938 0-8.53125 3.820312-8.53125 8.535156 0 4.710938 3.820312 8.53125 8.53125 8.53125zm0 0" fill="url(#g)"/><path d="m264.53125 179.199219h-34.132812c-4.710938 0-8.53125 3.820312-8.53125 8.535156 0 4.710937 3.820312 8.53125 8.53125 8.53125h34.132812c4.714844 0 8.535156-3.820313 8.535156-8.53125 0-4.714844-3.820312-8.535156-8.535156-8.535156zm0 0" fill="url(#c)"/><path d="m264.53125 230.398438h-34.132812c-4.710938 0-8.53125 3.820312-8.53125 8.535156 0 4.710937 3.820312 8.535156 8.53125 8.535156h34.132812c4.714844 0 8.535156-3.824219 8.535156-8.535156 0-4.714844-3.820312-8.535156-8.535156-8.535156zm0 0" fill="url(#j)"/><path d="m332.800781 145.066406h34.132813c4.710937 0 8.53125-3.820312 8.53125-8.53125 0-4.714844-3.820313-8.535156-8.53125-8.535156h-34.132813c-4.714843 0-8.535156 3.820312-8.535156 8.535156 0 4.710938 3.820313 8.53125 8.535156 8.53125zm0 0" fill="url(#i)"/></svg>